<?xml version="1.0" standalone="no"?>
<!DOCTYPE svg PUBLIC "-//W3C//DTD SVG 20010904//EN"
 "http://www.w3.org/TR/2001/REC-SVG-20010904/DTD/svg10.dtd">
<svg version="1.0" xmlns="http://www.w3.org/2000/svg"
 width="1067.000000pt" height="1066.000000pt" viewBox="0 0 1067.000000 1066.000000"
 preserveAspectRatio="xMidYMid meet">

<g transform="translate(0.000000,1066.000000) scale(0.100000,-0.100000)"
fill="#000000" stroke="none">
<path d="M5055 10654 c-335 -25 -560 -55 -803 -105 -2093 -431 -3739 -2090
-4151 -4184 -74 -377 -95 -605 -95 -1035 0 -430 21 -658 95 -1035 369 -1878
1735 -3423 3559 -4026 306 -101 590 -167 912 -213 293 -42 417 -51 763 -51
346 0 470 9 763 51 2123 304 3862 1859 4401 3935 70 267 112 505 148 829 24
219 24 801 0 1020 -24 218 -44 352 -78 525 -412 2094 -2058 3753 -4151 4184
-164 34 -433 74 -608 91 -114 11 -659 21 -755 14z m595 -254 c1786 -113 3364
-1139 4199 -2731 658 -1256 751 -2784 249 -4119 -587 -1561 -1906 -2740 -3515
-3144 -2297 -576 -4660 485 -5762 2585 -658 1256 -751 2784 -249 4119 406
1079 1167 1989 2158 2582 874 523 1901 772 2920 708z"/>
<path d="M5060 10224 c-922 -65 -1723 -334 -2458 -826 -736 -492 -1349 -1208
-1715 -2003 -974 -2111 -348 -4595 1508 -5987 715 -536 1534 -854 2455 -955
231 -25 739 -25 970 0 1180 129 2208 623 3020 1453 901 920 1400 2141 1400
3424 0 1283 -499 2504 -1400 3424 -809 827 -1843 1325 -3010 1451 -138 15
-647 27 -770 19z m645 -94 c840 -71 1591 -328 2275 -778 624 -410 1134 -947
1519 -1599 87 -148 251 -484 316 -648 296 -747 400 -1577 299 -2385 -48 -382
-156 -804 -299 -1165 -65 -164 -229 -500 -316 -648 -385 -652 -895 -1189
-1519 -1599 -613 -403 -1314 -663 -2030 -752 -402 -50 -828 -50 -1230 0 -716
89 -1417 349 -2030 752 -1101 723 -1861 1867 -2094 3152 -87 479 -101 993 -40
1480 91 726 355 1436 767 2055 357 537 823 1000 1367 1357 190 126 307 192
524 299 539 266 1113 424 1736 478 139 12 616 12 755 1z"/>
<path d="M5215 10041 l-60 -6 2 -35 c2 -19 14 -215 28 -435 14 -220 28 -411
31 -423 l5 -24 232 6 c264 6 317 15 445 77 103 50 195 137 238 224 26 53 29
70 29 155 0 124 -26 183 -122 279 -74 74 -186 137 -298 167 -65 18 -413 28
-530 15z m530 -141 c207 -80 308 -232 261 -393 -12 -42 -30 -71 -72 -116 -101
-110 -224 -151 -451 -151 l-131 0 -6 48 c-3 26 -8 144 -11 262 -3 118 -8 253
-11 299 l-7 83 184 -4 c162 -4 191 -7 244 -28z"/>
<path d="M4426 9934 c-33 -8 -61 -16 -63 -18 -7 -7 -84 -350 -103 -461 -22
-126 -44 -313 -55 -457 l-7 -87 66 22 c74 24 66 7 87 177 7 52 15 105 20 116
8 24 79 44 304 88 l120 24 17 -22 c9 -11 45 -67 80 -124 l63 -103 35 5 c19 3
50 6 68 6 20 0 32 5 32 13 0 7 -37 76 -81 153 -171 292 -459 685 -502 683 -12
0 -49 -7 -81 -15z m210 -367 c48 -65 85 -119 83 -121 -2 -2 -65 -16 -139 -31
-74 -15 -146 -30 -159 -33 -23 -5 -23 -3 -17 40 7 48 47 226 66 298 l12 45 34
-40 c18 -22 73 -93 120 -158z"/>
<path d="M3845 9768 c-232 -80 -685 -285 -685 -310 0 -5 11 -29 26 -53 l25
-44 142 70 141 69 31 -68 c17 -37 91 -201 165 -364 74 -164 138 -298 142 -298
4 0 32 11 62 24 l54 24 -153 368 c-84 203 -152 371 -149 375 2 4 67 31 145 60
155 59 150 53 120 132 -11 29 -20 31 -66 15z"/>
<path d="M6790 9494 c-80 -47 -146 -86 -147 -88 -6 -6 105 -331 113 -329 8 1
280 159 294 170 5 5 -103 333 -110 333 -3 -1 -70 -39 -150 -86z"/>
<path d="M7546 9011 c-142 -204 -257 -373 -257 -378 0 -4 21 -23 45 -41 l45
-33 142 190 c77 105 143 191 147 191 3 0 56 -38 117 -85 129 -98 180 -120 266
-112 74 6 121 35 156 94 55 95 25 214 -79 308 -69 62 -300 235 -314 235 -6 0
-127 -166 -268 -369z m429 109 c56 -44 107 -92 113 -106 34 -74 -5 -144 -80
-144 -24 0 -55 8 -70 18 -73 47 -197 148 -193 158 7 22 108 154 117 154 6 0
56 -36 113 -80z"/>
<path d="M2798 9241 c-65 -26 -408 -269 -408 -290 0 -4 120 -155 266 -336 147
-182 275 -341 285 -354 22 -27 38 -23 92 25 l29 25 -145 191 -146 192 57 43
c31 23 66 43 78 43 49 0 326 -81 483 -142 l103 -40 60 28 c33 16 62 32 65 36
10 18 -289 136 -489 194 l-97 27 24 32 c38 49 55 99 55 160 0 84 -35 137 -112
170 -50 20 -142 18 -200 -4z m126 -115 c65 -27 69 -111 8 -168 -30 -28 -210
-158 -226 -164 -6 -2 -38 33 -70 78 l-60 81 30 24 c61 49 207 145 232 153 39
12 49 12 86 -4z"/>
<path d="M5160 8969 c-1309 -51 -2518 -845 -3100 -2034 -199 -406 -319 -836
-360 -1285 -13 -148 -13 -492 0 -640 139 -1539 1232 -2827 2724 -3210 497
-127 1069 -147 1570 -55 1410 260 2531 1313 2881 2704 72 285 105 563 105 881
0 236 -11 372 -46 590 -213 1326 -1162 2440 -2439 2865 -440 147 -847 203
-1335 184z m570 -105 c682 -79 1293 -332 1827 -756 164 -130 431 -397 561
-561 473 -596 740 -1305 771 -2049 19 -466 -37 -874 -179 -1298 -176 -527
-456 -978 -859 -1381 -584 -584 -1285 -922 -2127 -1025 -190 -23 -588 -23
-778 0 -706 86 -1296 331 -1841 764 -157 125 -426 394 -553 555 -473 595 -740
1308 -771 2050 -27 677 114 1292 429 1871 162 297 356 554 609 807 637 636
1425 987 2346 1043 108 7 437 -5 565 -20z"/>
<path d="M5145 8764 c-880 -58 -1660 -413 -2266 -1031 -267 -272 -452 -531
-624 -873 -565 -1127 -458 -2493 277 -3524 266 -372 647 -724 1030 -952 556
-330 1130 -488 1773 -488 324 0 553 28 855 104 857 217 1622 783 2085 1545
613 1008 666 2267 140 3315 -172 342 -357 601 -624 873 -559 570 -1273 920
-2066 1012 -131 15 -468 26 -580 19z m615 -69 c772 -105 1437 -432 1975 -970
554 -553 883 -1241 977 -2040 16 -142 16 -568 0 -710 -94 -799 -423 -1487
-977 -2040 -539 -540 -1199 -864 -1980 -971 -185 -26 -655 -26 -840 0 -245 34
-447 80 -660 151 -1094 365 -1940 1281 -2215 2400 -69 282 -94 499 -94 815 0
248 9 370 45 580 208 1219 1088 2242 2267 2636 265 89 484 133 837 168 93 9
556 -4 665 -19z"/>
<path d="M3610 7735 l0 -105 45 0 45 0 0 -330 0 -330 -45 0 -45 0 0 -105 0
-105 285 0 285 0 0 105 0 105 -75 0 -75 0 0 95 0 95 145 0 145 0 0 105 0 105
-145 0 -145 0 0 130 0 130 115 0 115 0 0 -70 0 -70 135 0 135 0 0 175 0 175
-460 0 -460 0 0 -105z"/>
<path d="M5960 7561 c-53 -17 -91 -43 -117 -83 l-28 -41 -20 46 -20 47 -147 0
-148 0 0 -100 0 -100 30 0 30 0 0 -185 0 -185 -30 0 -30 0 0 -100 0 -100 220
0 220 0 0 100 0 100 -40 0 -40 0 0 103 c1 165 32 208 163 223 l57 7 0 138 0
139 -37 -1 c-21 0 -49 -4 -63 -8z"/>
<path d="M4870 7536 c-209 -59 -331 -243 -300 -455 30 -209 197 -341 431 -341
181 0 332 92 391 239 32 80 32 241 -1 323 -27 71 -102 154 -168 191 -100 54
-248 72 -353 43z m178 -219 c67 -62 68 -282 2 -349 -37 -36 -73 -36 -110 0
-38 38 -53 99 -48 197 6 153 78 223 156 152z"/>
<path d="M6390 7536 c-209 -59 -331 -243 -300 -455 30 -209 197 -341 431 -341
181 0 332 92 391 239 32 80 32 241 -1 323 -27 71 -102 154 -168 191 -100 54
-248 72 -353 43z m178 -219 c67 -62 68 -282 2 -349 -37 -36 -73 -36 -110 0
-38 38 -53 99 -48 197 6 153 78 223 156 152z"/>
<path d="M5137 6255 c-226 -39 -411 -137 -563 -296 -73 -78 -109 -129 -162
-234 -85 -171 -117 -321 -116 -550 1 -234 36 -400 120 -568 180 -360 560 -543
1053 -506 520 39 842 348 912 874 16 126 6 404 -19 520 -90 413 -333 661 -728
745 -129 28 -384 35 -497 15z m264 -455 c95 -27 181 -154 221 -330 29 -130 32
-432 5 -558 -50 -231 -143 -347 -276 -346 -134 1 -233 111 -293 329 -19 70
-22 105 -22 290 -1 186 2 220 22 300 63 251 182 360 343 315z"/>
<path d="M7261 6240 c-373 -79 -679 -411 -765 -830 -51 -253 -16 -560 88 -774
145 -298 406 -476 769 -525 353 -48 705 70 979 328 43 41 77 77 76 82 -2 4
-79 91 -172 193 l-169 185 -69 -74 c-87 -94 -198 -168 -290 -196 -243 -74
-464 84 -524 376 -20 98 -15 296 11 395 40 151 126 279 218 320 51 24 147 26
207 5 111 -39 177 -141 205 -317 l6 -38 264 0 265 0 0 420 0 420 -236 -2 -237
-3 -29 -76 -30 -76 -47 46 c-54 53 -140 101 -221 126 -66 19 -237 28 -299 15z"/>
<path d="M2110 6020 l0 -190 85 0 85 0 0 -436 c0 -485 8 -578 61 -738 100
-301 294 -465 634 -538 35 -7 130 -13 230 -13 202 0 271 14 415 82 80 38 108
58 175 127 65 65 90 100 128 176 52 105 91 241 107 370 5 47 10 282 10 527 l0
443 80 0 80 0 0 190 0 190 -435 0 -435 0 0 -195 0 -195 76 0 75 0 -3 -452 c-5
-498 -9 -534 -71 -640 -51 -88 -162 -125 -292 -98 -82 17 -145 79 -174 173
-35 114 -41 206 -41 623 l0 404 80 0 80 0 0 190 0 190 -475 0 -475 0 0 -190z"/>
<path d="M5231 3253 c-57 -69 -104 -132 -105 -139 -1 -13 193 -273 204 -274 6
0 214 247 218 260 3 9 -198 279 -208 279 -3 1 -52 -56 -109 -126z"/>
<path d="M3590 3110 l0 -40 685 0 685 0 0 40 0 40 -685 0 -685 0 0 -40z"/>
<path d="M5710 3110 l0 -40 715 0 715 0 0 40 0 40 -715 0 -715 0 0 -40z"/>
<path d="M2115 8720 c-60 -55 -143 -135 -183 -177 -92 -98 -242 -269 -242
-276 0 -9 698 -587 707 -586 4 0 53 53 109 118 56 64 151 162 212 216 60 55
110 102 111 105 0 3 -18 25 -39 49 l-40 43 -180 -178 -180 -179 -127 113 c-71
62 -130 117 -131 123 -2 5 73 87 167 181 l170 172 -40 44 -41 44 -178 -179
-178 -179 -73 63 c-41 36 -76 69 -77 74 -2 5 91 104 207 220 l212 210 -31 39
c-18 22 -35 40 -38 40 -4 0 -56 -45 -117 -100z"/>
<path d="M8460 8621 c-252 -88 -464 -177 -679 -286 l-74 -37 46 -45 45 -46
126 56 c69 32 130 57 135 57 12 0 245 -244 261 -275 12 -22 7 -35 -54 -146
l-66 -121 37 -49 c20 -27 40 -49 43 -49 10 1 155 255 239 420 86 168 211 443
211 464 0 13 -88 116 -98 115 -4 0 -81 -26 -172 -58z m85 -143 c-8 -24 -143
-319 -149 -325 -2 -3 -24 17 -48 44 -23 26 -70 76 -102 110 -33 35 -57 65 -55
67 2 2 65 26 139 54 231 85 225 83 215 50z"/>
<path d="M8698 7878 l-368 -270 31 -44 c16 -24 34 -44 39 -44 5 0 96 60 202
134 l193 134 39 -59 c38 -58 39 -61 27 -102 -27 -92 -97 -278 -147 -392 -29
-66 -54 -125 -55 -130 -2 -6 11 -37 28 -70 l31 -59 51 102 c55 110 136 302
166 392 10 30 19 58 21 62 3 3 30 -9 61 -28 118 -71 244 -41 299 71 23 48 26
64 22 118 -3 39 -15 81 -31 112 -32 64 -219 338 -232 341 -6 1 -175 -119 -377
-268z m429 0 c75 -115 93 -150 93 -183 0 -73 -67 -119 -132 -92 -42 18 -56 35
-133 154 l-63 97 36 26 c75 54 127 89 133 90 3 0 32 -42 66 -92z"/>
<path d="M1469 7877 c-44 -17 -84 -44 -126 -89 -34 -35 -139 -206 -216 -350
l-47 -87 248 -127 c136 -69 321 -164 411 -211 90 -46 164 -83 165 -81 1 2 31
55 65 118 35 63 90 156 122 206 78 120 92 160 93 264 0 65 -4 95 -20 131 -68
148 -225 202 -378 131 l-63 -30 -18 40 c-34 77 -147 118 -236 85z m103 -157
c48 -49 38 -97 -51 -245 -40 -66 -76 -124 -80 -128 -6 -6 -153 66 -179 88 -5
5 137 240 159 264 24 25 74 50 102 51 10 0 32 -14 49 -30z m385 -51 c67 -25
105 -86 105 -169 0 -57 -19 -109 -65 -174 -11 -16 -46 -73 -77 -126 l-56 -98
-157 87 c-86 47 -157 91 -157 97 0 14 130 232 177 296 56 77 156 115 230 87z"/>
<path d="M935 7036 c-8 -20 -22 -52 -30 -73 -8 -20 -13 -39 -10 -42 3 -3 196
-80 428 -172 293 -116 424 -163 429 -155 4 6 16 34 27 62 l19 51 -407 176
c-224 97 -415 179 -424 183 -13 5 -21 -2 -32 -30z"/>
<path d="M9050 6983 c-113 -6 -314 -23 -317 -27 -2 -2 8 -29 23 -59 l27 -56
143 6 143 6 26 -59 c45 -101 116 -306 111 -319 -2 -7 -50 -50 -105 -96 -56
-46 -101 -91 -101 -99 0 -26 26 -104 36 -107 12 -4 266 200 409 328 61 53 162
150 225 213 l114 116 -19 55 c-30 90 -23 86 -191 96 -142 7 -407 9 -524 2z
m478 -142 l64 -6 -137 -134 c-76 -75 -140 -130 -144 -125 -5 5 -22 45 -39 89
-16 44 -39 104 -51 133 l-21 52 133 -1 c72 -1 161 -4 195 -8z"/>
<path d="M1535 6328 c-34 -106 -81 -288 -105 -409 l-11 -55 -387 73 c-213 40
-392 71 -398 69 -10 -4 -40 -153 -32 -161 1 -2 207 -34 456 -72 445 -68 453
-69 457 -49 2 12 13 75 25 141 23 133 76 341 115 454 14 41 22 78 18 82 -5 3
-29 13 -55 22 l-47 16 -36 -111z"/>
<path d="M9458 5076 c-81 -44 -148 -85 -148 -89 0 -11 221 -257 232 -257 7 0
287 156 296 165 4 4 -218 259 -227 261 -3 1 -72 -35 -153 -80z"/>
<path d="M1068 4888 c-109 -131 -180 -220 -176 -223 1 -1 74 -37 160 -78 l157
-75 105 134 c58 74 106 136 106 139 0 5 -295 155 -304 155 -2 0 -24 -24 -48
-52z"/>
<path d="M1395 3811 c-127 -31 -224 -148 -256 -309 -17 -88 -6 -277 21 -372
86 -299 324 -570 573 -651 37 -12 69 -20 71 -18 3 2 -4 37 -13 78 l-17 74 -55
20 c-151 56 -289 187 -369 351 -64 130 -84 206 -84 326 1 213 96 330 268 330
245 -1 528 -308 576 -623 6 -42 10 -89 8 -103 -3 -23 4 -28 65 -54 l67 -29 0
77 c0 358 -337 811 -667 896 -63 17 -137 19 -188 7z"/>
<path d="M8865 3626 c-97 -31 -164 -94 -255 -240 -37 -61 -98 -153 -135 -205
-54 -77 -64 -96 -53 -106 34 -32 710 -545 717 -545 8 0 80 95 104 137 4 7 -67
63 -188 149 -108 75 -194 140 -193 144 2 4 25 40 52 81 l49 75 191 62 c176 58
473 185 503 215 15 15 104 209 99 215 -2 2 -45 -20 -94 -48 -142 -80 -311
-158 -455 -210 -72 -27 -133 -47 -135 -45 -2 2 2 29 8 60 36 175 -73 307 -215
261z m57 -166 c31 -24 41 -70 27 -122 -15 -59 -170 -308 -190 -308 -5 0 -44
25 -87 56 l-79 56 93 146 c117 184 171 224 236 172z"/>
<path d="M8156 2789 c-26 -29 -45 -55 -44 -59 6 -13 653 -640 659 -638 3 2 33
33 67 69 l62 66 -340 307 c-187 168 -344 306 -349 306 -5 0 -30 -23 -55 -51z"/>
<path d="M2300 2640 c-112 -24 -213 -101 -258 -198 -34 -75 -42 -216 -18 -313
45 -173 176 -357 342 -475 67 -48 195 -109 274 -130 96 -26 267 -24 342 3 166
61 253 187 252 368 -2 350 -411 735 -798 750 -50 2 -111 0 -136 -5z m278 -151
c26 -6 89 -31 141 -56 79 -38 108 -59 182 -132 73 -72 95 -101 130 -174 34
-72 43 -102 47 -163 10 -161 -64 -271 -209 -310 -311 -82 -709 233 -709 562 0
134 64 226 189 270 45 16 167 18 229 3z"/>
<path d="M7850 2493 c-152 -132 -289 -232 -465 -338 -44 -26 -81 -49 -83 -50
-7 -6 54 -95 64 -95 6 0 65 34 130 76 65 41 121 76 125 77 4 1 107 -140 229
-313 122 -173 227 -320 233 -327 9 -9 28 0 84 43 l73 54 -140 184 c-77 101
-187 246 -244 322 l-104 137 72 57 c40 32 95 77 122 102 l51 44 -37 42 c-19
23 -38 42 -40 42 -3 0 -34 -26 -70 -57z"/>
<path d="M3331 1598 c-117 -225 -211 -411 -209 -413 14 -13 150 -75 157 -71 4
3 74 146 156 318 81 172 151 317 155 321 4 4 22 -34 40 -85 38 -110 99 -257
146 -350 l34 -67 97 45 c117 54 246 123 328 175 33 21 61 34 63 29 2 -4 -35
-154 -82 -332 -46 -178 -86 -332 -88 -342 -2 -16 10 -22 80 -38 46 -11 85 -18
88 -15 12 12 201 893 192 898 -5 3 -39 12 -76 19 l-67 12 -105 -66 c-100 -63
-359 -201 -364 -194 -16 20 -115 266 -149 367 l-44 132 -69 33 -70 33 -213
-409z"/>
<path d="M6824 1871 c-66 -26 -164 -63 -218 -81 -75 -25 -96 -36 -92 -47 4 -8
67 -204 141 -435 74 -231 136 -423 139 -425 3 -3 41 7 85 22 l80 26 -44 122
c-24 67 -59 166 -79 221 -20 54 -36 102 -36 106 0 5 36 22 80 39 l81 31 122
-49 c157 -62 251 -93 417 -136 l134 -34 83 45 c45 24 85 49 88 54 3 4 -21 14
-52 20 -133 26 -351 84 -475 126 -73 25 -135 47 -137 50 -2 2 15 24 37 48 56
61 74 108 70 177 -5 71 -32 109 -100 143 -42 21 -66 26 -127 26 -67 0 -90 -6
-197 -49z m244 -87 c52 -36 48 -110 -8 -158 -26 -21 -272 -126 -297 -126 -10
0 -79 188 -72 194 2 1 63 26 134 54 140 55 203 64 243 36z"/>
<path d="M5883 1621 c-24 -4 -44 -9 -46 -12 -2 -2 -27 -71 -56 -154 -92 -262
-171 -439 -302 -677 -33 -59 -59 -109 -59 -113 0 -3 42 -4 93 -3 l92 3 67 135
c51 103 72 136 90 141 12 4 75 12 138 18 63 7 173 23 244 36 l129 24 41 -47
c22 -26 69 -77 104 -113 l63 -66 52 12 c29 7 71 18 94 24 l42 12 -157 157
c-176 175 -276 292 -425 495 -112 151 -102 144 -204 128z m117 -261 c30 -41
83 -111 118 -155 l64 -80 -54 -12 c-74 -17 -316 -48 -323 -41 -3 3 14 56 39
119 24 63 54 147 67 187 13 39 26 69 29 65 4 -5 31 -42 60 -83z"/>
<path d="M4750 1613 c-1 -5 -32 -208 -69 -453 -38 -245 -68 -446 -66 -448 5
-6 166 -24 171 -19 4 3 18 107 32 229 13 123 28 227 32 232 5 4 76 3 159 -3
202 -15 272 0 349 73 46 42 62 77 62 130 0 58 -11 86 -54 134 -60 66 -129 90
-297 102 -79 6 -173 15 -209 20 -80 12 -110 12 -110 3z m290 -138 c135 -8 156
-13 189 -41 59 -49 46 -125 -26 -159 -35 -17 -50 -17 -187 -7 -82 7 -151 14
-153 16 -2 1 2 49 8 105 l12 103 31 -6 c17 -3 74 -8 126 -11z"/>
</g>
</svg>
