<?xml version="1.0" standalone="no"?>
<!DOCTYPE svg PUBLIC "-//W3C//DTD SVG 20010904//EN"
 "http://www.w3.org/TR/2001/REC-SVG-20010904/DTD/svg10.dtd">
<svg version="1.0" xmlns="http://www.w3.org/2000/svg"
 width="1067.000000pt" height="1067.000000pt" viewBox="0 0 1067.000000 1067.000000"
 preserveAspectRatio="xMidYMid meet">
<metadata>
Created by potrace 1.14, written by Peter Selinger 2001-2017
</metadata>
<g transform="translate(0.000000,1067.000000) scale(0.100000,-0.100000)"
fill="#000000" stroke="none">
<path d="M5058 10665 c-1 -1 -53 -6 -115 -9 -62 -4 -120 -9 -130 -10 -10 -2
-47 -7 -83 -10 -36 -4 -75 -8 -85 -10 -11 -2 -42 -7 -70 -10 -82 -12 -219 -35
-295 -51 -185 -37 -240 -51 -395 -95 -60 -18 -130 -38 -155 -45 -53 -15 -322
-110 -365 -130 -16 -7 -81 -34 -143 -60 -144 -60 -447 -214 -582 -295 -58 -34
-114 -68 -125 -74 -153 -88 -506 -349 -697 -517 -77 -67 -396 -383 -463 -459
-580 -651 -987 -1421 -1199 -2265 -14 -55 -27 -111 -30 -125 -2 -14 -9 -47
-15 -75 -15 -71 -34 -175 -46 -255 -8 -53 -17 -116 -20 -132 -2 -9 -7 -48 -10
-85 -4 -37 -8 -78 -10 -91 -19 -120 -27 -734 -11 -907 3 -44 9 -106 11 -138 2
-32 9 -95 16 -140 6 -45 12 -91 14 -102 1 -11 5 -40 9 -65 4 -25 10 -58 12
-75 3 -16 7 -37 9 -45 2 -8 6 -32 9 -52 3 -21 11 -59 17 -85 6 -27 13 -59 15
-73 7 -34 63 -258 74 -295 161 -525 312 -871 575 -1313 29 -49 193 -299 209
-320 8 -9 51 -66 97 -127 225 -300 589 -679 864 -901 33 -26 62 -51 65 -54 10
-12 239 -180 330 -242 78 -53 250 -159 425 -261 123 -72 466 -229 685 -315
359 -139 892 -268 1270 -307 30 -3 73 -8 95 -10 192 -21 702 -28 895 -12 193
15 216 17 245 22 35 5 82 12 145 20 47 5 55 7 190 31 755 133 1496 445 2140
902 91 65 275 206 290 222 3 3 19 16 35 29 121 93 456 420 590 577 50 58 99
115 110 127 75 81 288 377 394 545 136 216 303 531 380 717 19 44 41 98 51
120 100 228 259 767 294 996 3 20 7 42 10 50 3 8 7 32 10 54 3 22 8 51 10 65
3 14 7 48 11 75 3 28 8 57 10 65 2 8 6 44 10 80 3 36 8 79 10 95 26 211 27
838 1 1045 -2 14 -6 54 -10 90 -4 36 -11 90 -16 120 -5 30 -12 78 -15 105 -3
28 -8 59 -10 70 -3 11 -7 31 -9 45 -11 62 -50 244 -72 335 -198 796 -576 1531
-1113 2165 -113 134 -429 458 -514 528 -29 23 -65 55 -82 70 -57 53 -280 228
-395 308 -135 95 -268 179 -400 255 -52 30 -113 65 -135 78 -68 39 -334 167
-450 216 -351 150 -764 273 -1135 339 -194 34 -216 37 -535 71 -61 7 -691 16
-697 10z m662 -259 c19 -3 67 -7 107 -10 39 -3 102 -10 140 -16 37 -5 87 -12
110 -14 364 -46 853 -183 1248 -351 676 -286 1321 -748 1795 -1285 41 -46 80
-90 85 -96 6 -6 26 -30 45 -54 19 -24 40 -48 45 -54 6 -6 33 -40 60 -76 27
-36 53 -69 57 -75 37 -47 89 -121 167 -240 114 -176 125 -192 149 -235 10 -19
42 -75 70 -125 58 -104 232 -463 232 -480 0 -4 6 -21 14 -38 84 -193 217 -621
262 -842 2 -11 11 -58 20 -105 9 -47 18 -92 19 -101 12 -63 33 -209 40 -289 4
-36 9 -76 11 -90 18 -106 26 -654 11 -840 -18 -229 -24 -283 -53 -465 -2 -16
-9 -52 -14 -80 -5 -27 -12 -66 -15 -85 -3 -19 -13 -64 -21 -100 -9 -36 -18
-76 -20 -90 -16 -82 -74 -280 -129 -445 -406 -1212 -1250 -2219 -2384 -2844
-127 -70 -260 -134 -466 -225 -179 -80 -489 -181 -745 -245 -113 -27 -218 -52
-235 -55 -16 -2 -95 -16 -175 -29 -80 -14 -176 -28 -215 -32 -38 -4 -83 -9
-100 -10 -254 -27 -780 -27 -1000 -1 -16 2 -57 7 -90 11 -60 6 -106 12 -156
21 -15 2 -45 6 -68 9 -298 37 -880 206 -1176 339 -27 13 -79 36 -115 51 -187
82 -468 237 -687 381 -414 271 -770 588 -1112 989 -298 351 -594 838 -785
1290 -100 236 -222 614 -266 820 -12 59 -40 194 -45 224 -3 14 -7 37 -10 51
-5 26 -19 119 -30 200 -3 25 -8 61 -10 80 -3 19 -7 64 -11 100 -3 36 -8 79
-10 95 -3 17 -6 165 -8 330 -3 307 2 423 29 655 13 114 17 142 25 195 65 402
171 779 325 1156 60 146 196 426 276 565 144 252 422 647 564 800 5 6 42 47
80 90 350 394 809 762 1290 1034 515 291 1156 511 1735 594 139 20 276 34 392
42 51 3 95 8 97 10 6 5 611 -4 651 -10z"/>
<path d="M5038 10235 c-3 -3 -38 -7 -203 -20 -33 -3 -94 -10 -135 -16 -41 -6
-91 -12 -110 -15 -34 -4 -169 -28 -220 -39 -14 -3 -47 -10 -75 -16 -87 -17
-349 -87 -466 -125 -421 -135 -844 -340 -1224 -594 -120 -81 -353 -255 -434
-325 -94 -81 -133 -116 -210 -190 -188 -180 -304 -306 -455 -495 -174 -217
-317 -429 -456 -675 -162 -289 -301 -614 -404 -945 -35 -116 -91 -325 -101
-381 -3 -16 -12 -60 -20 -98 -14 -68 -32 -174 -41 -240 -2 -19 -6 -46 -9 -60
-2 -14 -7 -51 -10 -81 -3 -30 -8 -68 -10 -85 -27 -223 -27 -757 0 -985 7 -62
27 -224 30 -245 7 -49 16 -102 20 -125 3 -14 7 -34 9 -45 14 -74 39 -186 48
-220 5 -22 12 -51 15 -65 16 -93 125 -434 193 -605 69 -175 196 -444 275 -580
92 -161 230 -383 267 -430 5 -5 45 -59 89 -119 329 -443 746 -841 1199 -1143
127 -84 285 -183 295 -183 4 0 19 -8 33 -19 35 -24 252 -135 367 -188 216 -99
528 -213 740 -269 139 -37 392 -91 560 -119 31 -5 171 -23 240 -30 255 -27
788 -27 1000 0 17 3 59 7 95 11 36 3 72 8 82 9 9 2 38 7 65 11 26 3 57 8 68
10 11 2 49 9 85 15 248 41 790 202 977 289 24 11 45 20 48 20 6 0 103 45 220
101 711 341 1356 881 1831 1534 59 80 184 265 184 271 0 2 20 35 45 74 25 39
45 72 45 74 0 3 23 44 51 93 54 93 158 305 204 413 14 36 33 79 41 95 22 49
79 202 113 310 18 55 35 107 38 115 3 8 7 20 8 25 2 6 14 51 28 100 26 93 72
287 81 340 3 17 14 77 25 135 10 58 19 112 19 120 1 8 6 51 12 95 19 147 20
159 27 260 14 202 7 745 -11 840 -2 11 -7 51 -11 88 -3 37 -8 76 -9 85 -3 15
-8 50 -22 152 -3 19 -7 42 -9 50 -2 8 -7 30 -10 48 -3 18 -12 65 -21 105 -8
39 -18 83 -20 97 -3 14 -14 59 -25 100 -11 41 -26 98 -34 125 -112 423 -359
961 -625 1360 -115 173 -300 419 -373 497 -7 7 -30 33 -51 58 -117 135 -360
371 -516 501 -486 405 -1014 700 -1599 895 -107 36 -231 74 -275 85 -45 11
-108 27 -141 35 -122 31 -373 77 -484 89 -19 3 -48 6 -65 9 -17 2 -60 7 -96
11 -36 3 -83 8 -105 11 -44 6 -682 14 -687 9z"/>
</g>
</svg>
